<?xml version="1.0" standalone="no"?><!DOCTYPE svg PUBLIC "-//W3C//DTD SVG 1.1//EN" "http://www.w3.org/Graphics/SVG/1.1/DTD/svg11.dtd"><svg t="1749712255213" class="icon" viewBox="0 0 1024 1024" version="1.1" xmlns="http://www.w3.org/2000/svg" p-id="10052" id="mx_n_1749712255214" xmlns:xlink="http://www.w3.org/1999/xlink" width="300" height="300"><path d="M512 136.106667c5.290667 0 10.666667 2.773333 13.397333 8.533333l104.512 222.677333a14.549333 14.549333 0 0 0 11.114667 8.277334l234.901333 35.925333a14.72 14.72 0 0 1 8.256 24.874667l-170.794666 175.104a14.72 14.72 0 0 0-3.968 12.714666l40.213333 246.634667a14.805333 14.805333 0 0 1-21.717333 15.274667l-208.810667-115.413334a15.018667 15.018667 0 0 0-14.165333 0l-208.810667 115.413334a14.4 14.4 0 0 1-7.125333 1.877333 14.869333 14.869333 0 0 1-14.592-17.173333l40.192-246.634667a14.613333 14.613333 0 0 0-3.968-12.672l-170.922667-175.104a14.784 14.784 0 0 1 8.32-24.896l235.008-35.925333a14.677333 14.677333 0 0 0 11.093333-8.277334l104.490667-222.72c2.688-5.717333 8.106667-8.533333 13.397333-8.533333v0.042667z m0-72.021334a86.378667 86.378667 0 0 0-78.506667 49.92l-91.605333 194.986667-204.672 31.317333a86.357333 86.357333 0 0 0-69.205333 58.197334 86.357333 86.357333 0 0 0 20.181333 88.106666l150.698667 154.453334L203.306667 859.093333a86.826667 86.826667 0 0 0 127.701333 89.92L512 848.981333l180.992 100.138667a86.826667 86.826667 0 0 0 127.701333-89.92l-35.584-218.005333 150.677334-154.517334a86.634667 86.634667 0 0 0 20.181333-88.106666 86.357333 86.357333 0 0 0-69.205333-58.197334l-204.672-31.402666-91.626667-194.986667A86.186667 86.186667 0 0 0 512 64.085333z" fill="#5F6165" p-id="10053"></path></svg>