<?xml version="1.0" standalone="no"?><!DOCTYPE svg PUBLIC "-//W3C//DTD SVG 1.1//EN" "http://www.w3.org/Graphics/SVG/1.1/DTD/svg11.dtd"><svg t="1749712259646" class="icon" viewBox="0 0 1024 1024" version="1.1" xmlns="http://www.w3.org/2000/svg" p-id="10261" id="mx_n_1749712259647" xmlns:xlink="http://www.w3.org/1999/xlink" width="300" height="300"><path d="M532.48 86.308571L658.285714 337.92a23.405714 23.405714 0 0 0 17.554286 12.434286l277.942857 40.96a22.674286 22.674286 0 0 1 19.748572 26.331428 24.868571 24.868571 0 0 1-6.582858 13.165715l-202.605714 196.022857a21.211429 21.211429 0 0 0-6.582857 20.48l46.811429 276.48a23.405714 23.405714 0 0 1-19.017143 27.062857 20.48 20.48 0 0 1-14.628572 0l-248.685714-130.194286a23.405714 23.405714 0 0 0-21.942857 0L252.342857 950.857143a23.405714 23.405714 0 0 1-32.914286-12.434286 24.868571 24.868571 0 0 1 0-14.628571l47.542858-276.48a21.211429 21.211429 0 0 0-6.582858-20.48L58.514286 430.811429a23.405714 23.405714 0 0 1 0-32.914286 22.674286 22.674286 0 0 1 14.628571-6.582857l277.942857-40.96a21.211429 21.211429 0 0 0 14.628572-12.434286l124.342857-251.611429A24.137143 24.137143 0 0 1 522.24 73.142857a21.211429 21.211429 0 0 1 10.24 13.165714z" fill="#666666" p-id="10262"></path></svg>